<?xml version="1.0" encoding="utf-8"?>
<!-- Generator: Adobe Illustrator 25.4.1, SVG Export Plug-In . SVG Version: 6.00 Build 0)  -->
<svg version="1.1" id="Capa_1" xmlns="http://www.w3.org/2000/svg" xmlns:xlink="http://www.w3.org/1999/xlink" x="0px" y="0px"
	 viewBox="0 0 1440 320" style="enable-background:new 0 0 1440 320;" xml:space="preserve">
<style type="text/css">
	.st0{fill:#007AAE;}
	.st1{fill:#009FDF;}
</style>
<path class="st0" d="M0.7,164.68c0.5-1.78,0.99-3.56,1.57-5.63c9.56,4.79,20.73,6.5,31.12,9.56c27.77,8.19,55.58,16.3,83.44,24.33
	c17.52,5.05,35.16,9.86,52.72,14.84c28.19,7.99,56.57,15.66,84.43,24.2c13.94,4.27,28.64,7.2,42.02,12.4
	c0.7,0.27,1.68,0.17,2.53,0.24c1.13,0.47,2.42,0.8,3.11,1.69c4.26,8.63,6.71,17.79,15.68,24.97c4.25,3.4,8.86,6.04,14.64,8.2
	c28.9,10.79,58.69,20.21,88.23,30.01c2.84,0.94,5.59,2.13,7.93,3.64c2.22,1.43,3.31,3-0.52,4.16c-19.62,1.08-39.25,0.23-58.87,0.48
	c-4.55,0.06-9.11-0.11-13.52,0.96c-27.11,0.81-54.22,0.26-81.33,0.29c-7.14,0.01-14.27-0.1-21.41,0.11
	c-12.84-0.03-25.67-0.2-38.52-0.09c-64.67-0.04-129.34,0-194.01-0.02c-3.16,0-6.32,0.04-9.48-0.07c-4.47-0.16-6.25-1.46-7.92-4.91
	c-3.92-8.07-3.11-16.22-3.17-24.33c-0.28-37.39-0.04-74.77-0.14-112.16c-0.01-2.06,0.19-4.11-0.76-6.09
	C-2.01,169-2.41,166.54,0.7,164.68z"/>
<path class="st0" d="M761.2,308.14c20.86-2.64,40.08-7.25,59.21-11.67c42.01-9.69,84.56-18.83,126.88-28.2
	c59.37-13.14,118.5-26.52,177.89-39.64c57.03-12.6,114.36-24.91,171.37-37.53c43.46-9.62,86.62-19.54,129.92-29.32
	c12.41-1.23,13.1,3.37,13.17,6.69c0.72,34.61,9.83,69.19,2.57,103.81c-2.61,12.46-0.71,24.91-1.88,37.36
	c-0.5,5.27-1,10.65-15.79,11.83c-7.7,0.17-15.41,0.44-23.13,0.32c-196.87,0.43-393.74,0.51-590.59-0.03
	c-10.73,0.5-21.46-0.36-32.19-0.07c-6.67,0.25-13.34-0.14-20.01-0.1c-5.24,0.03-10.48-0.05-15.72-0.09
	c-5.06-0.05-10.13-0.13-14.92-1.04c-1.85-0.41-3.12-1.08-3.82-1.98c-0.05-0.91,0.41-1.77,1.44-2.55c1.13-0.69,2.47-1.29,4-1.79
	C739.4,311.35,751.34,310.93,761.2,308.14z"/>
<path class="st1" d="M608.55,144.38c1.05-0.31,2.18-1.04,2.94,0.07c0.17,0.25,0.63,0.48,0.95,0.72c1.35,0.46,2.07,1.02,2.46,1.63
	c0.3,0.73,0.93,1.43,1.41,2.14c5.66,9.03,11.62,18.04,17.52,27.06c7.96,12.17,15.79,24.35,23.82,36.52
	c14.11,21.37,27.83,42.78,41.9,64.15c8.39,12.74,16.64,25.49,24.79,38.25c0.22,0.62,0.92,1.21,1.1,1.84c0.15,0.5,0.65,1,0.31,1.51
	c-0.41,0.47,0.59,1.02-0.83,1.43c-0.37,0.01-0.72,0.05-1.05,0.1c-1.63,0-3.27,0-4.9,0.01c-1.66,0.16-3.33,0.3-5.07,0.32
	c-2.4-0.01-4.95,0.34-7.06-0.33c-14.33-0.02-28.66-0.05-43-0.05c-23.42,0.01-46.85-0.03-70.27,0.08
	c-91.24,0.44-182.5,0.22-273.74,0.42c-9.66,0.02-19.35,0.1-29.02,0.22c-8.99,0.11-17.72-0.01-25.75-1.52
	c-17.15-1.96-33.05-4.82-49.49-7.3c-21.01-3.17-42-6.36-62.92-9.6c-0.9-0.17-1.81-0.35-2.8-0.46c-0.47-0.05-0.92-0.11-1.37-0.17
	c-0.87-0.13-1.72-0.28-2.58-0.41c-0.86-0.14-1.73-0.27-2.61-0.4c-0.46-0.06-0.91-0.14-1.35-0.21c-2.26-0.41-4.7-0.68-7.09-1
	c-1.81-0.38-3.67-0.74-5.41-1.16c-2.1-1.32,2.09-1.66,3.53-2.43c2.19-0.68,4.32-1.38,6.4-2.1c26.37-8.81,54.23-17.12,80.6-25.92
	c6.05-2.02,12.81-3.8,18.62-5.9c5.65-1.43,10.26-3.23,15.47-4.82c0.34-0.12,0.72-0.23,1.09-0.33c0.33-0.11,0.7-0.2,1.05-0.3
	c0.16-0.05,0.34-0.1,0.5-0.15c0.3-0.1,0.63-0.19,0.95-0.29c0.15-0.05,0.31-0.09,0.46-0.14c0.28-0.1,0.59-0.19,0.89-0.28
	c0.14-0.05,0.29-0.09,0.43-0.14c0.27-0.1,0.56-0.18,0.85-0.27c-0.01,0,0.43-0.13,0.42-0.13c0.26-0.09,0.54-0.18,0.83-0.27
	c-0.01,0,0.42-0.13,0.41-0.13c0.26-0.09,0.54-0.18,0.82-0.27c-0.01,0,0.42-0.13,0.41-0.13c0.26-0.09,0.53-0.18,0.81-0.26
	c-0.01,0,0.41-0.13,0.41-0.13c0.25-0.09,0.53-0.18,0.81-0.26c-0.01,0,0.41-0.13,0.4-0.13c0.25-0.09,0.53-0.18,0.81-0.26
	c-0.01,0,0.41-0.13,0.4-0.13c0.25-0.09,0.53-0.18,0.81-0.26c-0.01,0,0.41-0.13,0.4-0.13c0.25-0.09,0.53-0.18,0.81-0.26
	c-0.01,0,0.41-0.13,0.4-0.13c0.25-0.09,0.53-0.18,0.8-0.26c-0.01,0,0.41-0.13,0.4-0.13c0.25-0.09,0.53-0.18,0.8-0.26
	c-0.01,0,0.41-0.13,0.4-0.13c0.25-0.09,0.53-0.18,0.8-0.26c-0.01,0,0.41-0.13,0.4-0.13c0.26-0.09,0.53-0.18,0.81-0.26
	c-0.01,0,0.42-0.13,0.41-0.13c0.26-0.09,0.54-0.18,0.82-0.27c-0.01,0,0.42-0.13,0.42-0.13c0.27-0.1,0.56-0.18,0.87-0.26
	c0.3-0.08,0.62-0.15,0.97-0.21c0.32-0.07,0.64-0.13,0.96-0.2c0.28-0.08,0.55-0.16,0.79-0.26c0.2-0.11,0.41-0.21,0.61-0.31
	c0.17-0.11,0.4-0.22,0.65-0.31c0.23-0.1,0.49-0.19,0.77-0.28c-0.01,0,0.41-0.13,0.4-0.14c0.26-0.09,0.53-0.18,0.81-0.27
	c-0.01,0,0.42-0.13,0.41-0.13c0.26-0.09,0.53-0.18,0.82-0.27c-0.01,0,0.42-0.13,0.41-0.13c0.26-0.09,0.56-0.18,0.86-0.25
	c0.29-0.08,0.62-0.15,0.97-0.21c0.32-0.07,0.66-0.13,0.99-0.19c0.31-0.07,0.62-0.14,0.92-0.21c0.27-0.09,0.54-0.17,0.78-0.26
	c-0.01,0,0.34-0.15,0.32-0.15c0.18-0.11,0.37-0.22,0.56-0.33c0.17-0.12,0.39-0.23,0.65-0.33c0.39-0.16,0.81-0.31,1.25-0.45
	c0.45-0.15,0.94-0.27,1.47-0.38c0.34-0.07,0.7-0.14,1.06-0.2c0.33-0.07,0.67-0.14,0.99-0.22c0.29-0.08,0.6-0.17,0.89-0.25
	c-0.01,0,0.43-0.13,0.42-0.13c0.26-0.09,0.54-0.18,0.82-0.27c-0.01,0,0.42-0.13,0.41-0.14c0.26-0.1,0.54-0.19,0.82-0.27
	c-0.01,0,0.42-0.13,0.41-0.14c0.26-0.1,0.54-0.19,0.83-0.28c-0.01,0,0.42-0.14,0.42-0.14c0.26-0.1,0.54-0.19,0.83-0.28
	c-0.01,0,0.43-0.14,0.42-0.14c0.41-0.14,0.85-0.28,1.28-0.42c0.27-0.1,0.56-0.19,0.86-0.27c0.27-0.09,0.57-0.18,0.86-0.26
	c-0.01,0,0.43-0.13,0.42-0.13c0.26-0.09,0.55-0.18,0.83-0.27c-0.01,0,0.42-0.13,0.41-0.13c0.26-0.09,0.54-0.18,0.82-0.27
	c-0.01,0,0.42-0.13,0.41-0.13c0.26-0.09,0.53-0.18,0.81-0.27c-0.01,0,0.42-0.13,0.41-0.13c0.25-0.09,0.53-0.18,0.81-0.26
	c-0.01,0,0.41-0.13,0.4-0.13c0.25-0.09,0.53-0.18,0.81-0.26c-0.01,0,0.41-0.13,0.4-0.13c0.25-0.09,0.53-0.18,0.81-0.26
	c-0.01,0,0.41-0.13,0.4-0.13c0.25-0.09,0.53-0.18,0.81-0.26c-0.01,0,0.41-0.13,0.4-0.13c0.25-0.09,0.53-0.18,0.81-0.26
	c-0.01,0,0.41-0.13,0.4-0.13c0.25-0.09,0.53-0.18,0.81-0.26c-0.01,0,0.41-0.13,0.4-0.13c0.25-0.09,0.53-0.18,0.81-0.26
	c-0.01,0,0.41-0.13,0.4-0.13c0.25-0.09,0.53-0.18,0.81-0.26c-0.01,0,0.41-0.13,0.4-0.13c0.25-0.09,0.53-0.18,0.81-0.26
	c-0.01,0,0.41-0.13,0.4-0.13c0.25-0.09,0.53-0.18,0.81-0.26c-0.01,0,0.41-0.13,0.4-0.13c0.25-0.09,0.53-0.18,0.81-0.26
	c-0.01,0,0.41-0.13,0.4-0.13c0.25-0.09,0.53-0.18,0.81-0.26c-0.01,0,0.41-0.13,0.4-0.13c0.25-0.09,0.53-0.18,0.81-0.26
	c-0.01,0,0.41-0.13,0.4-0.13c0.25-0.09,0.53-0.18,0.81-0.26c-0.01,0,0.41-0.13,0.4-0.13c0.25-0.09,0.53-0.18,0.81-0.26
	c-0.01,0,0.41-0.13,0.4-0.13c0.25-0.09,0.53-0.18,0.81-0.26c-0.01,0,0.41-0.13,0.4-0.13c0.25-0.09,0.53-0.18,0.81-0.26
	c-0.01,0,0.41-0.13,0.4-0.13c0.25-0.09,0.53-0.18,0.81-0.26c-0.01,0,0.41-0.13,0.4-0.13c0.25-0.09,0.53-0.18,0.81-0.26
	c-0.01,0,0.41-0.13,0.4-0.13c0.25-0.09,0.53-0.18,0.81-0.26c-0.01,0,0.42-0.13,0.41-0.13c0.26-0.09,0.54-0.18,0.82-0.27
	c-0.01,0,0.42-0.13,0.41-0.14c0.26-0.1,0.55-0.19,0.84-0.28c-0.01,0,0.43-0.14,0.42-0.14c0.28-0.1,0.57-0.2,0.87-0.29
	c0.15-0.05,0.3-0.1,0.45-0.15c0.3-0.1,0.63-0.19,0.97-0.28c0.34-0.09,0.69-0.18,1.05-0.26c0.72-0.18,1.3-0.41,1.82-0.65
	c0.26-0.14,0.56-0.26,0.87-0.39c0.31-0.14,0.65-0.26,1-0.38c0.18-0.06,0.37-0.12,0.55-0.19c0.38-0.13,0.79-0.25,1.22-0.36
	c5.73-1.37,10.35-3.13,15.31-4.75c27.83-9.07,56.15-17.97,84.34-26.92c20.09-6.38,39.84-12.87,60.03-19.21
	c19.02-5.98,37.56-12.12,56.46-18.13c11.97-3.81,24.05-7.58,35.91-11.43c2.18-0.66,4.29-1.36,6.37-2.05
	C603.71,145.06,606.1,144.71,608.55,144.38z"/>
</svg>
